# xmcd CD database file
#
# Track frame offsets:
#	150
#	18815
#	37272
#	59810
#	82907
#	104932
#	125910
#	146532
#
# Disc length: 2209 seconds
#
# Revision: 0
# Processed by: cddbd v1.5.1PL0 Copyright (c) Steve Scherf et al.
# Submitted via: CDex 1.51
#
DISCID=78089f08
DTITLE=Casey Rankin - The Rankin File Project English Cover In Hit Pops Longseller Chart 8
DYEAR=1992
DGENRE=Pop
TTITLE0=浪漫飛行(米米CLUB)
TTITLE1=あなたに会えてよかった(小泉今日子）
TTITLE2=どんなときも(槙原敬之)
TTITLE3=悲しみは雪のように（浜田省吾）
TTITLE4=未来予想図(Dreams Come Ture)
TTITLE5=オリビアを聴きながら(杏里)
TTITLE6=卒業写真(荒井由美)
TTITLE7=いとしのエリー(サザンオールスターズ)
EXTD=YEAR: 1992
EXTT0=
EXTT1=
EXTT2=
EXTT3=
EXTT4=
EXTT5=
EXTT6=
EXTT7=
PLAYORDER=
